<svg id="Layer_1" data-name="Layer 1" xmlns="http://www.w3.org/2000/svg" viewBox="0 0 421.91 333.37"><defs><style>.cls-1{fill:#191817;stroke:#dce0df;}.cls-1,.cls-2{stroke-miterlimit:10;}.cls-2{fill:#fff;stroke:#fff;}</style></defs><title>icon-white</title><polygon class="cls-1" points="135.15 214.07 180.16 331.8 191.86 291.01 176.2 250.81 199.87 194.29 169.34 96.55 103.08 18.55 62.23 0.59 33.6 26.43 40.41 76.45 77.11 58.14 91.66 67.13 113.02 83.04 144.36 103.08 152.25 138.06 163.81 182.74 135.15 214.07"/><polygon class="cls-1" points="286.81 214.07 241.81 331.8 230.11 291.01 245.76 250.81 222.09 194.29 252.63 96.55 318.89 18.55 359.74 0.59 388.36 26.43 381.56 76.45 344.86 58.14 330.31 67.13 308.94 83.04 277.61 103.08 269.71 138.06 258.15 182.74 286.81 214.07"/><path class="cls-2" d="M238.89,112.1" transform="translate(-39.02 -96.5)"/><polygon class="cls-1" points="210.96 31.72 245.31 107.96 210.96 107.96 176.6 107.96 210.96 31.72"/><polygon class="cls-1" points="210.96 195 199.84 142.18 222.06 142.18 210.96 195"/><polygon class="cls-1" points="140.48 158.24 130.34 107.96 66.49 133.1 97.52 129.44 103.49 147.94 120.19 133.1 130.94 199.03 140.48 158.24"/><polygon class="cls-1" points="281.43 158.24 291.57 107.96 355.42 133.1 324.39 129.44 318.42 147.94 301.71 133.1 290.97 199.03 281.43 158.24"/><polygon class="cls-1" points="111.16 92.09 33.6 129.44 0.65 290.25 134.79 255.95 33.6 263.57 45.62 136.29 108.87 100.47 111.16 92.09"/><polygon class="cls-1" points="310.75 92.09 388.31 129.44 421.26 290.25 287.12 255.95 388.31 263.57 376.29 136.29 313.04 100.47 310.75 92.09"/></svg>